<?xml version="1.0" standalone="no"?>
<!DOCTYPE svg PUBLIC "-//W3C//DTD SVG 20010904//EN"
 "http://www.w3.org/TR/2001/REC-SVG-20010904/DTD/svg10.dtd">
<svg version="1.0" xmlns="http://www.w3.org/2000/svg"
 width="500.000000pt" height="500.000000pt" viewBox="0 0 500.000000 500.000000"
 preserveAspectRatio="xMidYMid meet">
<metadata>
Created by potrace 1.14, written by Peter Selinger 2001-2017
</metadata>
<g transform="translate(0.000000,500.000000) scale(0.100000,-0.100000)"
fill="#000000" stroke="none">
<path d="M0 2500 l0 -2500 2500 0 2500 0 0 2500 0 2500 -2500 0 -2500 0 0
-2500z m3460 2016 c25 -10 80 -24 123 -31 43 -8 93 -23 110 -33 18 -11 55 -25
82 -31 28 -7 58 -20 68 -29 11 -9 37 -24 59 -32 23 -8 50 -27 61 -42 19 -25
19 -32 7 -159 -6 -73 -20 -165 -30 -203 -11 -39 -24 -123 -30 -186 -16 -169
-62 -340 -92 -340 -4 0 -15 12 -25 26 -30 42 -109 117 -163 154 -28 19 -68 47
-87 63 -20 15 -42 27 -50 27 -7 0 -36 11 -62 25 -73 36 -259 76 -381 82 -96 4
-117 1 -235 -30 -176 -47 -325 -109 -383 -160 -9 -8 -35 -24 -57 -35 -48 -25
-206 -169 -262 -239 -106 -132 -165 -221 -214 -323 -12 -25 -28 -52 -36 -61
-8 -10 -20 -40 -28 -69 -7 -28 -21 -62 -29 -75 -9 -14 -25 -59 -35 -102 -11
-43 -26 -97 -35 -120 -40 -109 -40 -577 0 -685 9 -24 25 -74 36 -113 10 -38
25 -77 33 -85 7 -8 21 -35 31 -60 17 -43 29 -62 91 -140 41 -52 165 -170 178
-170 6 0 22 -11 35 -25 13 -14 29 -25 35 -25 7 0 39 -13 71 -29 32 -16 104
-42 159 -58 139 -39 267 -38 450 5 157 36 239 67 360 137 33 19 76 41 95 50
19 9 44 25 55 36 11 10 51 44 88 75 53 43 71 54 80 45 18 -18 13 -156 -7 -221
-9 -30 -23 -116 -31 -190 -9 -74 -22 -158 -30 -186 -8 -28 -20 -97 -26 -153
-12 -101 -12 -102 -51 -132 -21 -17 -60 -37 -85 -45 -26 -8 -70 -25 -97 -39
-27 -14 -61 -25 -74 -25 -14 0 -48 -11 -77 -25 -29 -13 -83 -29 -121 -35 -38
-6 -100 -21 -139 -33 -63 -19 -93 -21 -305 -21 -199 -1 -245 2 -300 18 -36 10
-101 26 -145 36 -166 37 -407 159 -545 273 -137 114 -211 194 -300 322 -14 20
-35 49 -48 65 -12 16 -28 43 -34 62 -6 18 -21 45 -34 60 -12 15 -25 42 -29 60
-4 18 -18 51 -30 73 -12 22 -28 62 -34 89 -7 27 -19 62 -26 77 -8 15 -21 72
-30 126 -8 55 -22 128 -31 164 -26 98 -23 409 5 544 11 55 25 135 31 178 5 43
17 91 25 107 8 16 22 62 30 102 9 40 22 82 30 94 7 11 18 41 24 65 6 24 23 67
36 94 14 28 32 66 40 85 8 19 19 42 24 50 6 8 20 35 31 60 12 25 33 66 48 91
26 43 38 63 80 125 9 15 28 43 42 64 54 81 67 98 147 190 133 155 319 337 357
349 6 2 20 12 31 22 47 43 92 77 125 94 19 9 42 24 51 31 49 43 361 193 442
213 27 6 59 18 70 25 12 8 54 19 92 25 39 7 106 21 150 31 116 28 118 28 370
25 188 -2 238 -5 275 -19z"/>
</g>
</svg>
